<?xml version="1.0" encoding="UTF-8" standalone="no"?>
<!DOCTYPE svg PUBLIC "-//W3C//DTD SVG 1.1//EN" "http://www.w3.org/Graphics/SVG/1.1/DTD/svg11.dtd">
<svg xmlns="http://www.w3.org/2000/svg" xmlns:xlink="http://www.w3.org/1999/xlink" version="1.1" width="495.95pt" height="294.45pt" viewBox="0 0 495.95 294.45">
<g enable-background="new">
<clipPath id="cp0">
<path transform="matrix(.75,0,0,.75,0,0)" d="M 0 0 L 661.26669 0 L 661.26669 392.6 L 0 392.6 Z "/>
</clipPath>
<g clip-path="url(#cp0)">
<clipPath id="cp1">
<path transform="matrix(.75,0,0,.75,0,0)" d="M 0 0 L 661.26669 0 L 661.26669 392.6 L 0 392.6 Z "/>
</clipPath>
<g clip-path="url(#cp1)">
<path transform="matrix(.75,0,0,.75,0,0)" d="M 317.93 56.41 C 317.93 53.58 320.23 51.28 323.07 51.28 C 325.91 51.28 328.21 53.58 328.21 56.41 C 328.21 59.25 325.91 61.55 323.07 61.55 C 320.23 61.55 317.93 59.25 317.93 56.41 Z "/>
<path transform="matrix(.75,0,0,.75,0,0)" stroke-width="1" stroke-linecap="butt" stroke-miterlimit="4" stroke-linejoin="miter" fill="none" stroke="#000000" d="M 317.93 56.41 C 317.93 53.58 320.23 51.28 323.07 51.28 C 325.91 51.28 328.21 53.58 328.21 56.41 C 328.21 59.25 325.91 61.55 323.07 61.55 C 320.23 61.55 317.93 59.25 317.93 56.41 Z "/>
<path transform="matrix(.75,0,0,.75,0,0)" d="M 110.54 265.34 C 110.54 262.5 112.84 260.2 115.68 260.2 C 118.52 260.2 120.82 262.5 120.82 265.34 C 120.82 268.18 118.52 270.48 115.68 270.48 C 112.84 270.48 110.54 268.18 110.54 265.34 Z "/>
<path transform="matrix(.75,0,0,.75,0,0)" stroke-width="1" stroke-linecap="butt" stroke-miterlimit="4" stroke-linejoin="miter" fill="none" stroke="#000000" d="M 110.54 265.34 C 110.54 262.5 112.84 260.2 115.68 260.2 C 118.52 260.2 120.82 262.5 120.82 265.34 C 120.82 268.18 118.52 270.48 115.68 270.48 C 112.84 270.48 110.54 268.18 110.54 265.34 Z "/>
<path transform="matrix(.75,0,0,.75,0,0)" d="M 298.9 329.33 C 298.9 326.5 301.2 324.2 304.03 324.2 C 306.87 324.2 309.17 326.5 309.17 329.33 C 309.17 332.17 306.87 334.47 304.03 334.47 C 301.2 334.47 298.9 332.17 298.9 329.33 Z "/>
<path transform="matrix(.75,0,0,.75,0,0)" stroke-width="1" stroke-linecap="butt" stroke-miterlimit="4" stroke-linejoin="miter" fill="none" stroke="#000000" d="M 298.9 329.33 C 298.9 326.5 301.2 324.2 304.03 324.2 C 306.87 324.2 309.17 326.5 309.17 329.33 C 309.17 332.17 306.87 334.47 304.03 334.47 C 301.2 334.47 298.9 332.17 298.9 329.33 Z "/>
<path transform="matrix(.75,0,0,.75,0,0)" d="M 500.9 233.13 C 500.9 230.3 503.2 228 506.03 228 C 508.87 228 511.17 230.3 511.17 233.13 C 511.17 235.97 508.87 238.27 506.03 238.27 C 503.2 238.27 500.9 235.97 500.9 233.13 Z "/>
<path transform="matrix(.75,0,0,.75,0,0)" stroke-width="1" stroke-linecap="butt" stroke-miterlimit="4" stroke-linejoin="miter" fill="none" stroke="#000000" d="M 500.9 233.13 C 500.9 230.3 503.2 228 506.03 228 C 508.87 228 511.17 230.3 511.17 233.13 C 511.17 235.97 508.87 238.27 506.03 238.27 C 503.2 238.27 500.9 235.97 500.9 233.13 Z "/>
<path transform="matrix(.75,0,0,.75,0,0)" stroke-width="1" stroke-linecap="butt" stroke-miterlimit="4" stroke-linejoin="miter" fill="none" stroke="#000000" d="M 100.33 178.67 L 341.33 258.67 "/>
<path transform="matrix(.75,0,0,.75,0,0)" stroke-width="1" stroke-linecap="butt" stroke-miterlimit="4" stroke-linejoin="miter" fill="none" stroke="#000000" d="M 100.33 178.67 L 252.33 95.67 "/>
<path transform="matrix(.75,0,0,.75,0,0)" stroke-width="1" stroke-linecap="butt" stroke-miterlimit="4" stroke-linejoin="miter" fill="none" stroke="#000000" d="M 341.33 258.67 L 538.33 162.67 "/>
<path transform="matrix(.75,0,0,.75,0,0)" stroke-width="1" stroke-linecap="butt" stroke-miterlimit="4" stroke-linejoin="miter" fill="none" stroke="#000000" d="M 252.33 95.67 L 277.74 100.91 "/>
<path transform="matrix(.75,0,0,.75,0,0)" stroke-width="1" stroke-linecap="butt" stroke-miterlimit="4" stroke-linejoin="miter" fill="none" stroke="#000000" d="M 323.07 56.41 L 212.33 166 "/>
<path transform="matrix(.75,0,0,.75,0,0)" stroke-width="1" stroke-linecap="butt" stroke-miterlimit="4" stroke-linejoin="miter" fill="none" stroke="#000000" d="M 212.33 166 L 312.33 200 "/>
<path transform="matrix(.75,0,0,.75,0,0)" stroke-width="1" stroke-linecap="butt" stroke-miterlimit="4" stroke-linejoin="miter" fill="none" stroke="#000000" d="M 312.33 200 L 421.33 152 "/>
<path transform="matrix(.75,0,0,.75,0,0)" stroke-width="1" stroke-linecap="butt" stroke-miterlimit="4" stroke-linejoin="miter" fill="none" stroke="#000000" d="M 323.07 56.41 L 312.33 200 "/>
<path transform="matrix(.75,0,0,.75,0,0)" stroke-width="1" stroke-linecap="butt" stroke-miterlimit="4" stroke-linejoin="miter" fill="none" stroke="#000000" d="M 323.07 56.41 L 421.33 152 "/>
<path transform="matrix(.75,0,0,.75,0,0)" stroke-width="1" stroke-linecap="butt" stroke-miterlimit="4" stroke-linejoin="miter" fill="none" stroke="#000000" d="M 398.52 129.87 L 538.33 162.67 "/>
<path transform="matrix(.75,0,0,.75,0,0)" stroke-width="1" stroke-linecap="butt" stroke-miterlimit="4" stroke-linejoin="miter" fill="none" stroke="#000000" d="M 115.68 265.34 L 175.33 203.72 "/>
<path transform="matrix(.75,0,0,.75,0,0)" stroke-width="1" stroke-linecap="butt" stroke-miterlimit="4" stroke-linejoin="miter" fill="none" stroke="#000000" d="M 309.46 248.08 L 304.03 329.33 "/>
<path transform="matrix(.75,0,0,.75,0,0)" stroke-width="1" stroke-linecap="butt" stroke-miterlimit="4" stroke-linejoin="miter" fill="none" stroke="#000000" d="M 506.03 233.13 L 468.03 197.13 "/>
<path transform="matrix(.75,0,0,.75,0,0)" stroke-width="1" stroke-linecap="butt" stroke-miterlimit="4" stroke-linejoin="miter" fill="none" stroke="#000000" d="M 304.03 329.33 L 506.03 233.13 "/>
<path transform="matrix(.75,0,0,.75,0,0)" stroke-width="1" stroke-linecap="butt" stroke-miterlimit="4" stroke-linejoin="miter" fill="none" stroke="#000000" d="M 115.68 265.34 L 304.03 329.33 "/>
<path transform="matrix(.75,0,0,.75,0,0)" d="M 207.2 166 C 207.2 163.16 209.5 160.86 212.33 160.86 C 215.17 160.86 217.47 163.16 217.47 166 C 217.47 168.84 215.17 171.14 212.33 171.14 C 209.5 171.14 207.2 168.84 207.2 166 Z "/>
<path transform="matrix(.75,0,0,.75,0,0)" stroke-width="1" stroke-linecap="butt" stroke-miterlimit="4" stroke-linejoin="miter" fill="none" stroke="#000000" d="M 207.2 166 C 207.2 163.16 209.5 160.86 212.33 160.86 C 215.17 160.86 217.47 163.16 217.47 166 C 217.47 168.84 215.17 171.14 212.33 171.14 C 209.5 171.14 207.2 168.84 207.2 166 Z "/>
<path transform="matrix(.75,0,0,.75,0,0)" d="M 307.2 200 C 307.2 197.16 309.5 194.86 312.33 194.86 C 315.17 194.86 317.47 197.16 317.47 200 C 317.47 202.84 315.17 205.14 312.33 205.14 C 309.5 205.14 307.2 202.84 307.2 200 Z "/>
<path transform="matrix(.75,0,0,.75,0,0)" stroke-width="1" stroke-linecap="butt" stroke-miterlimit="4" stroke-linejoin="miter" fill="none" stroke="#000000" d="M 307.2 200 C 307.2 197.16 309.5 194.86 312.33 194.86 C 315.17 194.86 317.47 197.16 317.47 200 C 317.47 202.84 315.17 205.14 312.33 205.14 C 309.5 205.14 307.2 202.84 307.2 200 Z "/>
<path transform="matrix(.75,0,0,.75,0,0)" d="M 416.2 152 C 416.2 149.16 418.5 146.86 421.33 146.86 C 424.17 146.86 426.47 149.16 426.47 152 C 426.47 154.84 424.17 157.14 421.33 157.14 C 418.5 157.14 416.2 154.84 416.2 152 Z "/>
<path transform="matrix(.75,0,0,.75,0,0)" stroke-width="1" stroke-linecap="butt" stroke-miterlimit="4" stroke-linejoin="miter" fill="none" stroke="#000000" d="M 416.2 152 C 416.2 149.16 418.5 146.86 421.33 146.86 C 424.17 146.86 426.47 149.16 426.47 152 C 426.47 154.84 424.17 157.14 421.33 157.14 C 418.5 157.14 416.2 154.84 416.2 152 Z "/>
</g>
<clipPath id="cp2">
<path transform="matrix(.75,0,0,.75,0,0)" d="M 0 0 L 660 0 L 660 391.33335 L 0 391.33335 Z "/>
</clipPath>
<g clip-path="url(#cp2)">
<path transform="matrix(.01836225,0,0,-.01836225,254.02501,37.874986)" d="M 166 420 C 187 420 203 421 229 424 C 118 304 76 221 76 121 C 76 44 122 -11 186 -11 C 324 -11 477 236 477 384 C 477 441 451 482 415 482 C 402 482 390 478 382 470 L 332 423 L 343 404 C 352 410 361 413 370 413 C 397 413 413 390 413 350 C 413 202 316 39 228 39 C 179 39 148 81 148 146 C 148 251 187 342 285 464 L 275 482 C 255 473 242 470 214 470 C 186 470 144 472 115 475 L 103 476 C 97 477 92 477 91 477 C 79 477 70 475 59 470 C 45 443 34 407 21 352 L 43 352 L 60 394 C 67 411 87 422 111 422 C 144 422 128 420 166 420 Z "/>
<path transform="matrix(.01836225,0,0,-.01836225,254.02501,37.874986)" stroke-width="8" stroke-linecap="butt" stroke-miterlimit="4" stroke-linejoin="miter" fill="none" stroke="#000000" d="M 166 420 C 187 420 203 421 229 424 C 118 304 76 221 76 121 C 76 44 122 -11 186 -11 C 324 -11 477 236 477 384 C 477 441 451 482 415 482 C 402 482 390 478 382 470 L 332 423 L 343 404 C 352 410 361 413 370 413 C 397 413 413 390 413 350 C 413 202 316 39 228 39 C 179 39 148 81 148 146 C 148 251 187 342 285 464 L 275 482 C 255 473 242 470 214 470 C 186 470 144 472 115 475 L 103 476 C 97 477 92 477 91 477 C 79 477 70 475 59 470 C 45 443 34 407 21 352 L 43 352 L 60 394 C 67 411 87 422 111 422 C 144 422 128 420 166 420 Z "/>
<path transform="matrix(.01836225,0,0,-.01836225,50.487489,222.41248)" d="M 582 103 L 237 692 L 75 692 L 70 664 L 105 662 C 150 660 184 615 185 606 L 92 102 C 80 40 74 32 38 28 L 7 25 L 2 -3 L 113 0 C 125 0 126 0 223 -3 L 228 25 L 186 28 C 146 31 137 39 137 72 C 137 80 138 91 140 102 L 220 566 L 558 -11 L 608 -11 L 702 542 C 723 655 725 659 762 662 L 799 664 L 802 691 L 589 692 L 584 664 L 631 662 C 657 661 667 654 667 638 C 667 631 584 116 582 103 Z "/>
<path transform="matrix(.01836225,0,0,-.01836225,50.487489,222.41248)" stroke-width="8" stroke-linecap="butt" stroke-miterlimit="4" stroke-linejoin="miter" fill="none" stroke="#000000" d="M 582 103 L 237 692 L 75 692 L 70 664 L 105 662 C 150 660 184 615 185 606 L 92 102 C 80 40 74 32 38 28 L 7 25 L 2 -3 L 113 0 C 125 0 126 0 223 -3 L 228 25 L 186 28 C 146 31 137 39 137 72 C 137 80 138 91 140 102 L 220 566 L 558 -11 L 608 -11 L 702 542 C 723 655 725 659 762 662 L 799 664 L 802 691 L 589 692 L 584 664 L 631 662 C 657 661 667 654 667 638 C 667 631 584 116 582 103 Z "/>
<path transform="matrix(.01284975,0,0,-.01284975,64.73749,228.22499)" d="M 418 -3 L 418 27 L 366 30 C 311 33 301 44 301 96 L 301 700 L 60 598 L 67 548 L 217 614 L 217 96 C 217 44 206 33 152 30 L 96 27 L 96 -3 C 250 0 250 0 261 0 C 292 0 402 -3 418 -3 Z "/>
<path transform="matrix(.01284975,0,0,-.01284975,64.73749,228.22499)" stroke-width="8" stroke-linecap="butt" stroke-miterlimit="4" stroke-linejoin="miter" fill="none" stroke="#000000" d="M 418 -3 L 418 27 L 366 30 C 311 33 301 44 301 96 L 301 700 L 60 598 L 67 548 L 217 614 L 217 96 C 217 44 206 33 152 30 L 96 27 L 96 -3 C 250 0 250 0 261 0 C 292 0 402 -3 418 -3 Z "/>
<path transform="matrix(.01836225,0,0,-.01836225,71.38749,222.41248)" d="M 146 266 C 146 526 243 632 301 700 L 282 726 C 225 675 60 542 60 266 C 60 159 85 58 133 -32 C 168 -99 200 -138 282 -215 L 301 -194 C 255 -137 146 -15 146 266 Z "/>
<path transform="matrix(.01836225,0,0,-.01836225,71.38749,222.41248)" stroke-width="8" stroke-linecap="butt" stroke-miterlimit="4" stroke-linejoin="miter" fill="none" stroke="#000000" d="M 146 266 C 146 526 243 632 301 700 L 282 726 C 225 675 60 542 60 266 C 60 159 85 58 133 -32 C 168 -99 200 -138 282 -215 L 301 -194 C 255 -137 146 -15 146 266 Z "/>
<path transform="matrix(.01836225,0,0,-.01836225,77.56249,222.41248)" d="M 166 420 C 187 420 203 421 229 424 C 118 304 76 221 76 121 C 76 44 122 -11 186 -11 C 324 -11 477 236 477 384 C 477 441 451 482 415 482 C 402 482 390 478 382 470 L 332 423 L 343 404 C 352 410 361 413 370 413 C 397 413 413 390 413 350 C 413 202 316 39 228 39 C 179 39 148 81 148 146 C 148 251 187 342 285 464 L 275 482 C 255 473 242 470 214 470 C 186 470 144 472 115 475 L 103 476 C 97 477 92 477 91 477 C 79 477 70 475 59 470 C 45 443 34 407 21 352 L 43 352 L 60 394 C 67 411 87 422 111 422 C 144 422 128 420 166 420 Z "/>
<path transform="matrix(.01836225,0,0,-.01836225,77.56249,222.41248)" stroke-width="8" stroke-linecap="butt" stroke-miterlimit="4" stroke-linejoin="miter" fill="none" stroke="#000000" d="M 166 420 C 187 420 203 421 229 424 C 118 304 76 221 76 121 C 76 44 122 -11 186 -11 C 324 -11 477 236 477 384 C 477 441 451 482 415 482 C 402 482 390 478 382 470 L 332 423 L 343 404 C 352 410 361 413 370 413 C 397 413 413 390 413 350 C 413 202 316 39 228 39 C 179 39 148 81 148 146 C 148 251 187 342 285 464 L 275 482 C 255 473 242 470 214 470 C 186 470 144 472 115 475 L 103 476 C 97 477 92 477 91 477 C 79 477 70 475 59 470 C 45 443 34 407 21 352 L 43 352 L 60 394 C 67 411 87 422 111 422 C 144 422 128 420 166 420 Z "/>
<path transform="matrix(.01836225,0,0,-.01836225,86.58751,222.41248)" d="M 51 726 L 32 700 C 87 636 187 526 187 266 C 187 -10 83 -131 32 -194 L 51 -215 C 104 -165 273 -23 273 265 C 273 542 108 675 51 726 Z "/>
<path transform="matrix(.01836225,0,0,-.01836225,86.58751,222.41248)" stroke-width="8" stroke-linecap="butt" stroke-miterlimit="4" stroke-linejoin="miter" fill="none" stroke="#000000" d="M 51 726 L 32 700 C 87 636 187 526 187 266 C 187 -10 83 -131 32 -194 L 51 -215 C 104 -165 273 -23 273 265 C 273 542 108 675 51 726 Z "/>
<path transform="matrix(.01836225,0,0,-.01836225,238.8875,263.725)" d="M 582 103 L 237 692 L 75 692 L 70 664 L 105 662 C 150 660 184 615 185 606 L 92 102 C 80 40 74 32 38 28 L 7 25 L 2 -3 L 113 0 C 125 0 126 0 223 -3 L 228 25 L 186 28 C 146 31 137 39 137 72 C 137 80 138 91 140 102 L 220 566 L 558 -11 L 608 -11 L 702 542 C 723 655 725 659 762 662 L 799 664 L 802 691 L 589 692 L 584 664 L 631 662 C 657 661 667 654 667 638 C 667 631 584 116 582 103 Z "/>
<path transform="matrix(.01836225,0,0,-.01836225,238.8875,263.725)" stroke-width="8" stroke-linecap="butt" stroke-miterlimit="4" stroke-linejoin="miter" fill="none" stroke="#000000" d="M 582 103 L 237 692 L 75 692 L 70 664 L 105 662 C 150 660 184 615 185 606 L 92 102 C 80 40 74 32 38 28 L 7 25 L 2 -3 L 113 0 C 125 0 126 0 223 -3 L 228 25 L 186 28 C 146 31 137 39 137 72 C 137 80 138 91 140 102 L 220 566 L 558 -11 L 608 -11 L 702 542 C 723 655 725 659 762 662 L 799 664 L 802 691 L 589 692 L 584 664 L 631 662 C 657 661 667 654 667 638 C 667 631 584 116 582 103 Z "/>
<path transform="matrix(.01284975,0,0,-.01284975,253.1375,269.53749)" d="M 16 23 L 16 -3 C 203 -3 203 0 239 0 C 275 0 275 -3 468 -3 L 468 82 C 353 77 307 81 122 77 L 304 270 C 401 373 431 428 431 503 C 431 618 353 689 226 689 C 154 689 105 669 56 619 L 39 483 L 68 483 L 81 529 C 97 587 133 612 200 612 C 286 612 341 558 341 473 C 341 398 299 324 186 204 Z "/>
<path transform="matrix(.01284975,0,0,-.01284975,253.1375,269.53749)" stroke-width="8" stroke-linecap="butt" stroke-miterlimit="4" stroke-linejoin="miter" fill="none" stroke="#000000" d="M 16 23 L 16 -3 C 203 -3 203 0 239 0 C 275 0 275 -3 468 -3 L 468 82 C 353 77 307 81 122 77 L 304 270 C 401 373 431 428 431 503 C 431 618 353 689 226 689 C 154 689 105 669 56 619 L 39 483 L 68 483 L 81 529 C 97 587 133 612 200 612 C 286 612 341 558 341 473 C 341 398 299 324 186 204 Z "/>
<path transform="matrix(.01836225,0,0,-.01836225,259.78749,263.725)" d="M 146 266 C 146 526 243 632 301 700 L 282 726 C 225 675 60 542 60 266 C 60 159 85 58 133 -32 C 168 -99 200 -138 282 -215 L 301 -194 C 255 -137 146 -15 146 266 Z "/>
<path transform="matrix(.01836225,0,0,-.01836225,259.78749,263.725)" stroke-width="8" stroke-linecap="butt" stroke-miterlimit="4" stroke-linejoin="miter" fill="none" stroke="#000000" d="M 146 266 C 146 526 243 632 301 700 L 282 726 C 225 675 60 542 60 266 C 60 159 85 58 133 -32 C 168 -99 200 -138 282 -215 L 301 -194 C 255 -137 146 -15 146 266 Z "/>
<path transform="matrix(.01836225,0,0,-.01836225,265.96247,263.725)" d="M 166 420 C 187 420 203 421 229 424 C 118 304 76 221 76 121 C 76 44 122 -11 186 -11 C 324 -11 477 236 477 384 C 477 441 451 482 415 482 C 402 482 390 478 382 470 L 332 423 L 343 404 C 352 410 361 413 370 413 C 397 413 413 390 413 350 C 413 202 316 39 228 39 C 179 39 148 81 148 146 C 148 251 187 342 285 464 L 275 482 C 255 473 242 470 214 470 C 186 470 144 472 115 475 L 103 476 C 97 477 92 477 91 477 C 79 477 70 475 59 470 C 45 443 34 407 21 352 L 43 352 L 60 394 C 67 411 87 422 111 422 C 144 422 128 420 166 420 Z "/>
<path transform="matrix(.01836225,0,0,-.01836225,265.96247,263.725)" stroke-width="8" stroke-linecap="butt" stroke-miterlimit="4" stroke-linejoin="miter" fill="none" stroke="#000000" d="M 166 420 C 187 420 203 421 229 424 C 118 304 76 221 76 121 C 76 44 122 -11 186 -11 C 324 -11 477 236 477 384 C 477 441 451 482 415 482 C 402 482 390 478 382 470 L 332 423 L 343 404 C 352 410 361 413 370 413 C 397 413 413 390 413 350 C 413 202 316 39 228 39 C 179 39 148 81 148 146 C 148 251 187 342 285 464 L 275 482 C 255 473 242 470 214 470 C 186 470 144 472 115 475 L 103 476 C 97 477 92 477 91 477 C 79 477 70 475 59 470 C 45 443 34 407 21 352 L 43 352 L 60 394 C 67 411 87 422 111 422 C 144 422 128 420 166 420 Z "/>
<path transform="matrix(.01836225,0,0,-.01836225,274.98753,263.725)" d="M 51 726 L 32 700 C 87 636 187 526 187 266 C 187 -10 83 -131 32 -194 L 51 -215 C 104 -165 273 -23 273 265 C 273 542 108 675 51 726 Z "/>
<path transform="matrix(.01836225,0,0,-.01836225,274.98753,263.725)" stroke-width="8" stroke-linecap="butt" stroke-miterlimit="4" stroke-linejoin="miter" fill="none" stroke="#000000" d="M 51 726 L 32 700 C 87 636 187 526 187 266 C 187 -10 83 -131 32 -194 L 51 -215 C 104 -165 273 -23 273 265 C 273 542 108 675 51 726 Z "/>
<path transform="matrix(.01836225,0,0,-.01836225,380.075,197.75)" d="M 582 103 L 237 692 L 75 692 L 70 664 L 105 662 C 150 660 184 615 185 606 L 92 102 C 80 40 74 32 38 28 L 7 25 L 2 -3 L 113 0 C 125 0 126 0 223 -3 L 228 25 L 186 28 C 146 31 137 39 137 72 C 137 80 138 91 140 102 L 220 566 L 558 -11 L 608 -11 L 702 542 C 723 655 725 659 762 662 L 799 664 L 802 691 L 589 692 L 584 664 L 631 662 C 657 661 667 654 667 638 C 667 631 584 116 582 103 Z "/>
<path transform="matrix(.01836225,0,0,-.01836225,380.075,197.75)" stroke-width="8" stroke-linecap="butt" stroke-miterlimit="4" stroke-linejoin="miter" fill="none" stroke="#000000" d="M 582 103 L 237 692 L 75 692 L 70 664 L 105 662 C 150 660 184 615 185 606 L 92 102 C 80 40 74 32 38 28 L 7 25 L 2 -3 L 113 0 C 125 0 126 0 223 -3 L 228 25 L 186 28 C 146 31 137 39 137 72 C 137 80 138 91 140 102 L 220 566 L 558 -11 L 608 -11 L 702 542 C 723 655 725 659 762 662 L 799 664 L 802 691 L 589 692 L 584 664 L 631 662 C 657 661 667 654 667 638 C 667 631 584 116 582 103 Z "/>
<path transform="matrix(.01284975,0,0,-.01284975,394.325,203.56247)" d="M 462 224 C 462 345 355 366 308 374 C 388 436 418 482 418 541 C 418 630 344 689 233 689 C 165 689 120 670 72 622 L 43 498 L 74 498 L 92 554 C 103 588 166 622 218 622 C 283 622 336 569 336 506 C 336 431 277 368 206 368 C 198 368 187 369 174 370 L 159 371 L 147 318 L 154 312 C 192 329 211 334 238 334 C 321 334 369 281 369 190 C 369 88 308 21 215 21 C 169 21 128 36 98 64 C 74 86 61 109 42 163 L 15 153 C 36 92 44 56 50 6 C 103 -12 147 -20 184 -20 C 307 -20 462 87 462 224 Z "/>
<path transform="matrix(.01284975,0,0,-.01284975,394.325,203.56247)" stroke-width="8" stroke-linecap="butt" stroke-miterlimit="4" stroke-linejoin="miter" fill="none" stroke="#000000" d="M 462 224 C 462 345 355 366 308 374 C 388 436 418 482 418 541 C 418 630 344 689 233 689 C 165 689 120 670 72 622 L 43 498 L 74 498 L 92 554 C 103 588 166 622 218 622 C 283 622 336 569 336 506 C 336 431 277 368 206 368 C 198 368 187 369 174 370 L 159 371 L 147 318 L 154 312 C 192 329 211 334 238 334 C 321 334 369 281 369 190 C 369 88 308 21 215 21 C 169 21 128 36 98 64 C 74 86 61 109 42 163 L 15 153 C 36 92 44 56 50 6 C 103 -12 147 -20 184 -20 C 307 -20 462 87 462 224 Z "/>
<path transform="matrix(.01836225,0,0,-.01836225,400.97499,197.75)" d="M 146 266 C 146 526 243 632 301 700 L 282 726 C 225 675 60 542 60 266 C 60 159 85 58 133 -32 C 168 -99 200 -138 282 -215 L 301 -194 C 255 -137 146 -15 146 266 Z "/>
<path transform="matrix(.01836225,0,0,-.01836225,400.97499,197.75)" stroke-width="8" stroke-linecap="butt" stroke-miterlimit="4" stroke-linejoin="miter" fill="none" stroke="#000000" d="M 146 266 C 146 526 243 632 301 700 L 282 726 C 225 675 60 542 60 266 C 60 159 85 58 133 -32 C 168 -99 200 -138 282 -215 L 301 -194 C 255 -137 146 -15 146 266 Z "/>
<path transform="matrix(.01836225,0,0,-.01836225,407.14997,197.75)" d="M 166 420 C 187 420 203 421 229 424 C 118 304 76 221 76 121 C 76 44 122 -11 186 -11 C 324 -11 477 236 477 384 C 477 441 451 482 415 482 C 402 482 390 478 382 470 L 332 423 L 343 404 C 352 410 361 413 370 413 C 397 413 413 390 413 350 C 413 202 316 39 228 39 C 179 39 148 81 148 146 C 148 251 187 342 285 464 L 275 482 C 255 473 242 470 214 470 C 186 470 144 472 115 475 L 103 476 C 97 477 92 477 91 477 C 79 477 70 475 59 470 C 45 443 34 407 21 352 L 43 352 L 60 394 C 67 411 87 422 111 422 C 144 422 128 420 166 420 Z "/>
<path transform="matrix(.01836225,0,0,-.01836225,407.14997,197.75)" stroke-width="8" stroke-linecap="butt" stroke-miterlimit="4" stroke-linejoin="miter" fill="none" stroke="#000000" d="M 166 420 C 187 420 203 421 229 424 C 118 304 76 221 76 121 C 76 44 122 -11 186 -11 C 324 -11 477 236 477 384 C 477 441 451 482 415 482 C 402 482 390 478 382 470 L 332 423 L 343 404 C 352 410 361 413 370 413 C 397 413 413 390 413 350 C 413 202 316 39 228 39 C 179 39 148 81 148 146 C 148 251 187 342 285 464 L 275 482 C 255 473 242 470 214 470 C 186 470 144 472 115 475 L 103 476 C 97 477 92 477 91 477 C 79 477 70 475 59 470 C 45 443 34 407 21 352 L 43 352 L 60 394 C 67 411 87 422 111 422 C 144 422 128 420 166 420 Z "/>
<path transform="matrix(.01836225,0,0,-.01836225,416.17503,197.75)" d="M 51 726 L 32 700 C 87 636 187 526 187 266 C 187 -10 83 -131 32 -194 L 51 -215 C 104 -165 273 -23 273 265 C 273 542 108 675 51 726 Z "/>
<path transform="matrix(.01836225,0,0,-.01836225,416.17503,197.75)" stroke-width="8" stroke-linecap="butt" stroke-miterlimit="4" stroke-linejoin="miter" fill="none" stroke="#000000" d="M 51 726 L 32 700 C 87 636 187 526 187 266 C 187 -10 83 -131 32 -194 L 51 -215 C 104 -165 273 -23 273 265 C 273 542 108 675 51 726 Z "/>
<path transform="matrix(.01836225,0,0,-.01836225,145.22498,142.91248)" d="M 166 420 C 187 420 203 421 229 424 C 118 304 76 221 76 121 C 76 44 122 -11 186 -11 C 324 -11 477 236 477 384 C 477 441 451 482 415 482 C 402 482 390 478 382 470 L 332 423 L 343 404 C 352 410 361 413 370 413 C 397 413 413 390 413 350 C 413 202 316 39 228 39 C 179 39 148 81 148 146 C 148 251 187 342 285 464 L 275 482 C 255 473 242 470 214 470 C 186 470 144 472 115 475 L 103 476 C 97 477 92 477 91 477 C 79 477 70 475 59 470 C 45 443 34 407 21 352 L 43 352 L 60 394 C 67 411 87 422 111 422 C 144 422 128 420 166 420 Z M 603 470 C 660 543 698 610 732 696 L 719 709 C 683 697 673 694 622 679 C 616 599 592 533 544 456 L 559 446 Z "/>
<path transform="matrix(.01836225,0,0,-.01836225,145.22498,142.91248)" stroke-width="8" stroke-linecap="butt" stroke-miterlimit="4" stroke-linejoin="miter" fill="none" stroke="#000000" d="M 166 420 C 187 420 203 421 229 424 C 118 304 76 221 76 121 C 76 44 122 -11 186 -11 C 324 -11 477 236 477 384 C 477 441 451 482 415 482 C 402 482 390 478 382 470 L 332 423 L 343 404 C 352 410 361 413 370 413 C 397 413 413 390 413 350 C 413 202 316 39 228 39 C 179 39 148 81 148 146 C 148 251 187 342 285 464 L 275 482 C 255 473 242 470 214 470 C 186 470 144 472 115 475 L 103 476 C 97 477 92 477 91 477 C 79 477 70 475 59 470 C 45 443 34 407 21 352 L 43 352 L 60 394 C 67 411 87 422 111 422 C 144 422 128 420 166 420 Z M 603 470 C 660 543 698 610 732 696 L 719 709 C 683 697 673 694 622 679 C 616 599 592 533 544 456 L 559 446 Z "/>
<path transform="matrix(.01284975,0,0,-.01284975,154.8875,148.72499)" d="M 418 -3 L 418 27 L 366 30 C 311 33 301 44 301 96 L 301 700 L 60 598 L 67 548 L 217 614 L 217 96 C 217 44 206 33 152 30 L 96 27 L 96 -3 C 250 0 250 0 261 0 C 292 0 402 -3 418 -3 Z "/>
<path transform="matrix(.01284975,0,0,-.01284975,154.8875,148.72499)" stroke-width="8" stroke-linecap="butt" stroke-miterlimit="4" stroke-linejoin="miter" fill="none" stroke="#000000" d="M 418 -3 L 418 27 L 366 30 C 311 33 301 44 301 96 L 301 700 L 60 598 L 67 548 L 217 614 L 217 96 C 217 44 206 33 152 30 L 96 27 L 96 -3 C 250 0 250 0 261 0 C 292 0 402 -3 418 -3 Z "/>
<path transform="matrix(.01836225,0,0,-.01836225,228.47498,167.66248)" d="M 166 420 C 187 420 203 421 229 424 C 118 304 76 221 76 121 C 76 44 122 -11 186 -11 C 324 -11 477 236 477 384 C 477 441 451 482 415 482 C 402 482 390 478 382 470 L 332 423 L 343 404 C 352 410 361 413 370 413 C 397 413 413 390 413 350 C 413 202 316 39 228 39 C 179 39 148 81 148 146 C 148 251 187 342 285 464 L 275 482 C 255 473 242 470 214 470 C 186 470 144 472 115 475 L 103 476 C 97 477 92 477 91 477 C 79 477 70 475 59 470 C 45 443 34 407 21 352 L 43 352 L 60 394 C 67 411 87 422 111 422 C 144 422 128 420 166 420 Z M 603 470 C 660 543 698 610 732 696 L 719 709 C 683 697 673 694 622 679 C 616 599 592 533 544 456 L 559 446 Z "/>
<path transform="matrix(.01836225,0,0,-.01836225,228.47498,167.66248)" stroke-width="8" stroke-linecap="butt" stroke-miterlimit="4" stroke-linejoin="miter" fill="none" stroke="#000000" d="M 166 420 C 187 420 203 421 229 424 C 118 304 76 221 76 121 C 76 44 122 -11 186 -11 C 324 -11 477 236 477 384 C 477 441 451 482 415 482 C 402 482 390 478 382 470 L 332 423 L 343 404 C 352 410 361 413 370 413 C 397 413 413 390 413 350 C 413 202 316 39 228 39 C 179 39 148 81 148 146 C 148 251 187 342 285 464 L 275 482 C 255 473 242 470 214 470 C 186 470 144 472 115 475 L 103 476 C 97 477 92 477 91 477 C 79 477 70 475 59 470 C 45 443 34 407 21 352 L 43 352 L 60 394 C 67 411 87 422 111 422 C 144 422 128 420 166 420 Z M 603 470 C 660 543 698 610 732 696 L 719 709 C 683 697 673 694 622 679 C 616 599 592 533 544 456 L 559 446 Z "/>
<path transform="matrix(.01284975,0,0,-.01284975,238.1375,173.47499)" d="M 16 23 L 16 -3 C 203 -3 203 0 239 0 C 275 0 275 -3 468 -3 L 468 82 C 353 77 307 81 122 77 L 304 270 C 401 373 431 428 431 503 C 431 618 353 689 226 689 C 154 689 105 669 56 619 L 39 483 L 68 483 L 81 529 C 97 587 133 612 200 612 C 286 612 341 558 341 473 C 341 398 299 324 186 204 Z "/>
<path transform="matrix(.01284975,0,0,-.01284975,238.1375,173.47499)" stroke-width="8" stroke-linecap="butt" stroke-miterlimit="4" stroke-linejoin="miter" fill="none" stroke="#000000" d="M 16 23 L 16 -3 C 203 -3 203 0 239 0 C 275 0 275 -3 468 -3 L 468 82 C 353 77 307 81 122 77 L 304 270 C 401 373 431 428 431 503 C 431 618 353 689 226 689 C 154 689 105 669 56 619 L 39 483 L 68 483 L 81 529 C 97 587 133 612 200 612 C 286 612 341 558 341 473 C 341 398 299 324 186 204 Z "/>
<path transform="matrix(.01836225,0,0,-.01836225,314.71247,138.41248)" d="M 166 420 C 187 420 203 421 229 424 C 118 304 76 221 76 121 C 76 44 122 -11 186 -11 C 324 -11 477 236 477 384 C 477 441 451 482 415 482 C 402 482 390 478 382 470 L 332 423 L 343 404 C 352 410 361 413 370 413 C 397 413 413 390 413 350 C 413 202 316 39 228 39 C 179 39 148 81 148 146 C 148 251 187 342 285 464 L 275 482 C 255 473 242 470 214 470 C 186 470 144 472 115 475 L 103 476 C 97 477 92 477 91 477 C 79 477 70 475 59 470 C 45 443 34 407 21 352 L 43 352 L 60 394 C 67 411 87 422 111 422 C 144 422 128 420 166 420 Z M 603 470 C 660 543 698 610 732 696 L 719 709 C 683 697 673 694 622 679 C 616 599 592 533 544 456 L 559 446 Z "/>
<path transform="matrix(.01836225,0,0,-.01836225,314.71247,138.41248)" stroke-width="8" stroke-linecap="butt" stroke-miterlimit="4" stroke-linejoin="miter" fill="none" stroke="#000000" d="M 166 420 C 187 420 203 421 229 424 C 118 304 76 221 76 121 C 76 44 122 -11 186 -11 C 324 -11 477 236 477 384 C 477 441 451 482 415 482 C 402 482 390 478 382 470 L 332 423 L 343 404 C 352 410 361 413 370 413 C 397 413 413 390 413 350 C 413 202 316 39 228 39 C 179 39 148 81 148 146 C 148 251 187 342 285 464 L 275 482 C 255 473 242 470 214 470 C 186 470 144 472 115 475 L 103 476 C 97 477 92 477 91 477 C 79 477 70 475 59 470 C 45 443 34 407 21 352 L 43 352 L 60 394 C 67 411 87 422 111 422 C 144 422 128 420 166 420 Z M 603 470 C 660 543 698 610 732 696 L 719 709 C 683 697 673 694 622 679 C 616 599 592 533 544 456 L 559 446 Z "/>
<path transform="matrix(.01284975,0,0,-.01284975,324.3875,144.22499)" d="M 462 224 C 462 345 355 366 308 374 C 388 436 418 482 418 541 C 418 630 344 689 233 689 C 165 689 120 670 72 622 L 43 498 L 74 498 L 92 554 C 103 588 166 622 218 622 C 283 622 336 569 336 506 C 336 431 277 368 206 368 C 198 368 187 369 174 370 L 159 371 L 147 318 L 154 312 C 192 329 211 334 238 334 C 321 334 369 281 369 190 C 369 88 308 21 215 21 C 169 21 128 36 98 64 C 74 86 61 109 42 163 L 15 153 C 36 92 44 56 50 6 C 103 -12 147 -20 184 -20 C 307 -20 462 87 462 224 Z "/>
<path transform="matrix(.01284975,0,0,-.01284975,324.3875,144.22499)" stroke-width="8" stroke-linecap="butt" stroke-miterlimit="4" stroke-linejoin="miter" fill="none" stroke="#000000" d="M 462 224 C 462 345 355 366 308 374 C 388 436 418 482 418 541 C 418 630 344 689 233 689 C 165 689 120 670 72 622 L 43 498 L 74 498 L 92 554 C 103 588 166 622 218 622 C 283 622 336 569 336 506 C 336 431 277 368 206 368 C 198 368 187 369 174 370 L 159 371 L 147 318 L 154 312 C 192 329 211 334 238 334 C 321 334 369 281 369 190 C 369 88 308 21 215 21 C 169 21 128 36 98 64 C 74 86 61 109 42 163 L 15 153 C 36 92 44 56 50 6 C 103 -12 147 -20 184 -20 C 307 -20 462 87 462 224 Z "/>
<path transform="matrix(.01836225,0,0,-.01836225,108.3625,133.01248)" d="M 236 722 L 224 733 C 179 711 138 697 64 691 L 60 670 L 108 670 C 126 670 142 667 142 647 C 142 641 142 632 140 622 L 98 388 C 78 272 36 80 10 2 L 17 -9 L 86 7 C 94 64 108 164 148 236 C 193 317 296 414 338 414 C 349 414 360 407 360 393 C 360 375 355 342 345 303 L 294 107 C 288 85 281 55 281 31 C 281 6 291 -9 312 -9 C 344 -9 412 41 471 85 L 461 103 L 435 86 C 412 71 386 56 374 56 C 367 56 361 65 361 76 C 361 88 364 101 368 116 L 432 372 C 438 398 443 423 443 447 C 443 464 437 482 411 482 C 376 482 299 437 231 374 C 198 343 172 308 144 273 L 140 275 Z "/>
<path transform="matrix(.01836225,0,0,-.01836225,108.3625,133.01248)" stroke-width="8" stroke-linecap="butt" stroke-miterlimit="4" stroke-linejoin="miter" fill="none" stroke="#000000" d="M 236 722 L 224 733 C 179 711 138 697 64 691 L 60 670 L 108 670 C 126 670 142 667 142 647 C 142 641 142 632 140 622 L 98 388 C 78 272 36 80 10 2 L 17 -9 L 86 7 C 94 64 108 164 148 236 C 193 317 296 414 338 414 C 349 414 360 407 360 393 C 360 375 355 342 345 303 L 294 107 C 288 85 281 55 281 31 C 281 6 291 -9 312 -9 C 344 -9 412 41 471 85 L 461 103 L 435 86 C 412 71 386 56 374 56 C 367 56 361 65 361 76 C 361 88 364 101 368 116 L 432 372 C 438 398 443 423 443 447 C 443 464 437 482 411 482 C 376 482 299 437 231 374 C 198 343 172 308 144 273 L 140 275 Z "/>
</g>
</g>
</g>
</svg>
